Coordinates
version=1
nRows=13
nColumns=38
inDegrees=no

Units are S.I. units (second, meters, Newtons, ...)
If the header above contains a line with 'inDegrees', this indicates whether rotational values are in degrees (yes) or radians (no).

endheader
time	pelvis_tilt	pelvis_list	pelvis_rotation	pelvis_tx	pelvis_ty	pelvis_tz	hip_flexion_r	hip_adduction_r	hip_rotation_r	knee_angle_r	ankle_angle_r	subtalar_angle_r	mtp_angle_r	hip_flexion_l	hip_adduction_l	hip_rotation_l	knee_angle_l	ankle_angle_l	subtalar_angle_l	mtp_angle_l	lumbar_extension	lumbar_bending	lumbar_rotation	arm_flex_r	arm_add_r	arm_rot_r	elbow_flex_r	pro_sup_r	wrist_flex_r	wrist_dev_r	arm_flex_l	arm_add_l	arm_rot_l	elbow_flex_l	pro_sup_l	wrist_flex_l	wrist_dev_l
10	-0.269037	1.36375	1.82416	0.616007	0.244059	0.976485	0.674124	-0.14116	0.00587486	0.734521	-0.285139	0	0	0.517523	-0.0800494	-0.311018	0.593476	-0.303114	0	0	-0.613397	-0.0636374	0.129656	0.496148	-0.725673	-0.0348107	1.52693	0.679138	0	0	0.930456	-0.446592	0.500478	1.29895	0.825152	0	0
10.01	-0.268674	1.36473	1.82274	0.615744	0.245597	0.979287	0.663237	-0.139373	0.00764503	0.719657	-0.291086	0	0	0.505006	-0.0758086	-0.308375	0.571929	-0.311102	0	0	-0.60395	-0.0666433	0.13917	0.467091	-0.727329	-0.0582659	1.53711	0.675962	0	0	0.928159	-0.44	0.508893	1.2976	0.826995	0	0
10.02	-0.269639	1.36594	1.82253	0.615484	0.247081	0.981994	0.652087	-0.137633	0.0099811	0.704663	-0.296756	0	0	0.492316	-0.0714907	-0.305866	0.550701	-0.319071	0	0	-0.595156	-0.0696293	0.14879	0.437937	-0.72917	-0.0812778	1.54815	0.674161	0	0	0.926178	-0.433781	0.517647	1.29652	0.82778	0	0
10.03	-0.270389	1.3668	1.82228	0.615154	0.248548	0.984497	0.641159	-0.135981	0.0127254	0.689446	-0.302078	0	0	0.480071	-0.06697	-0.303067	0.529583	-0.326857	0	0	-0.585582	-0.0714382	0.159204	0.407803	-0.7317	-0.104003	1.55993	0.675115	0	0	0.922959	-0.424877	0.523851	1.29331	0.827505	0	0
10.04	-0.270587	1.36761	1.82184	0.614707	0.249997	0.986863	0.630599	-0.134723	0.014679	0.674999	-0.307041	0	0	0.467894	-0.0621618	-0.29955	0.508319	-0.334503	0	0	-0.575792	-0.0723528	0.168911	0.379025	-0.73368	-0.125379	1.57075	0.676257	0	0	0.919165	-0.416546	0.529523	1.29003	0.826364	0	0
10.05	-0.270994	1.36913	1.82119	0.61433	0.251376	0.989168	0.619811	-0.133103	0.0166709	0.661366	-0.311049	0	0	0.455095	-0.0578855	-0.296432	0.487509	-0.340985	0	0	-0.566608	-0.0733479	0.176571	0.354881	-0.734129	-0.142053	1.57913	0.675971	0	0	0.914843	-0.412132	0.535562	1.28888	0.824749	0	0
10.06	-0.272043	1.37159	1.82069	0.613997	0.252688	0.991451	0.608029	-0.131025	0.0191161	0.647355	-0.315088	0	0	0.441366	-0.0540563	-0.29372	0.466948	-0.347897	0	0	-0.5583	-0.0739034	0.183953	0.333228	-0.734631	-0.156023	1.58632	0.67548	0	0	0.910584	-0.408866	0.541969	1.28756	0.822207	0	0
10.07	-0.272624	1.37453	1.81965	0.613686	0.25401	0.993683	0.59604	-0.128846	0.0210841	0.633832	-0.319078	0	0	0.427367	-0.0507765	-0.291774	0.446962	-0.355045	0	0	-0.549345	-0.0736196	0.190533	0.31425	-0.734381	-0.166696	1.59142	0.675403	0	0	0.904844	-0.405453	0.546497	1.28479	0.819302	0	0
10.08	-0.270106	1.37709	1.8158	0.61342	0.255221	0.995678	0.585671	-0.126402	0.0224751	0.622774	-0.321611	0	0	0.415732	-0.0490352	-0.291216	0.431334	-0.359792	0	0	-0.540105	-0.0731594	0.193404	0.301358	-0.732845	-0.170578	1.59395	0.675471	0	0	0.898534	-0.408891	0.552141	1.28678	0.817434	0	0
10.09	-0.268841	1.38075	1.81296	0.613162	0.256471	0.997805	0.572624	-0.123677	0.0250756	0.608294	-0.325224	0	0	0.401598	-0.0468812	-0.289705	0.412324	-0.366802	0	0	-0.531332	-0.072235	0.19536	0.291494	-0.731597	-0.170038	1.59417	0.675661	0	0	0.891848	-0.413306	0.558464	1.28768	0.814489	0	0
10.1	-0.268111	1.38524	1.8107	0.612878	0.25766	1	0.558219	-0.120942	0.0276606	0.592825	-0.330015	0	0	0.386873	-0.0449029	-0.288382	0.393855	-0.375752	0	0	-0.522629	-0.070452	0.195987	0.285471	-0.729951	-0.165186	1.5916	0.675913	0	0	0.883376	-0.416992	0.561698	1.28685	0.811104	0	0
10.11	-0.265716	1.38932	1.80713	0.612577	0.258791	1.00209	0.544781	-0.118396	0.0294462	0.578482	-0.334408	0	0	0.37345	-0.0433716	-0.287515	0.377116	-0.38387	0	0	-0.512908	-0.0679606	0.19507	0.282186	-0.727853	-0.15688	1.58719	0.67625	0	0	0.873187	-0.421039	0.562543	1.28562	0.807815	0	0
10.12	-0.263426	1.39383	1.80367	0.612252	0.259942	1.00414	0.531207	-0.116289	0.0299032	0.564856	-0.338707	0	0	0.359651	-0.0420544	-0.287347	0.360732	-0.391652	0	0	-0.503231	-0.0650574	0.192766	0.281746	-0.7255	-0.145011	1.58097	0.676469	0	0	0.861492	-0.425742	0.561414	1.28441	0.804471	0	0
